{"accessors":[{"bufferView":0,"componentType":5125,"count":56706,"max":[17998.0],"min":[0.0],"type":"SCALAR"},{"bufferView":1,"componentType":5126,"count":17999,"max":[0.8799999952316284,1.0299999713897706,0.699999988079071],"min":[-0.8299999833106995,-0.12999999523162843,-0.4300000071525574],"type":"VEC3"},{"bufferView":2,"componentType":5126,"count":17999,"max":[1.0,1.0,1.0],"min":[-1.0,-1.0,-1.0],"type":"VEC3"}],"asset":{"generator":"SimLab GLTF","version":"2.0"},"bufferViews":[{"buffer":0,"byteLength":226824,"target":34963},{"buffer":0,"byteLength":215988,"byteOffset":226824,"byteStride":12,"target":34962},{"buffer":0,"byteLength":215988,"byteOffset":442812,"byteStride":12,"target":34962}],"buffers":[{"byteLength":658800,"uri":"Pipes_1.bin"}],"materials":[{"name":"Mtl","alphaMode":"MASK","doubleSided":true,"pbrMetallicRoughness":{"baseColorFactor":[0.7921568751335144,0.8196078538894653,0.9333333373069763,1.0],"metallicFactor":0.0}}],"meshes":[{"primitives":[{"attributes":{"NORMAL":2,"POSITION":1},"indices":0,"material":0,"mode":4}]}],"nodes":[{"children":[1,2],"matrix":[1.0,0.0,0.0,0.0,0.0,4.4896593387466768e-11,-1.0,0.0,0.0,1.0,4.4896593387466768e-11,0.0,0.0,0.0,0.0,1.0]},{"name":"Camera-1","rotation":[-0.7071067690849304,0.0,0.0,-0.7071067690849304],"translation":[0.025000005960464479,-6.389999866485596,0.13499999046325684]},{"name":"Body_1","children":[4],"rotation":[0.0,0.0,0.0,-1.0]},{"mesh":0},{"children":[3]}],"scene":0,"scenes":[{"nodes":[0]}]}