{"accessors" : [{"bufferView" : 0, "byteOffset" : 0, "componentType" : 5123, "count" : 3192, "type" : "SCALAR", "max" : [2671], "min" : [0]}, {"bufferView" : 1, "byteOffset" : 0, "componentType" : 5126, "count" : 2672, "type" : "VEC3", "max" : [1.8962500095367432, 10.663719177246094, -0.8659998774528503], "min" : [-1.8962500095367432, 7.1787190437316895, -3.764700174331665], "name" : "POSITION"}, {"bufferView" : 1, "byteOffset" : 12, "componentType" : 5126, "count" : 2672, "type" : "VEC2", "max" : [0.9805552363395691, -0.07986801862716675], "min" : [-0.0030455910600721836, -0.3609013557434082], "name" : "TEXCOORD_0"}, {"bufferView" : 0, "byteOffset" : 6384, "componentType" : 5123, "count" : 10272, "type" : "SCALAR", "max" : [8572], "min" : [0]}, {"bufferView" : 2, "byteOffset" : 0, "componentType" : 5126, "count" : 8573, "type" : "VEC3", "max" : [1.8615072965621948, 10.62692642211914, -3.7226202487945557], "min" : [-1.8615072965621948, 7.215511798858643, -3.7279505729675293], "name" : "POSITION"}, {"bufferView" : 2, "byteOffset" : 12, "componentType" : 5126, "count" : 8573, "type" : "VEC2", "max" : [0, -0], "min" : [0, -0], "name" : "TEXCOORD_0"}, {"bufferView" : 0, "byteOffset" : 26928, "componentType" : 5123, "count" : 132, "type" : "SCALAR", "max" : [108], "min" : [0]}, {"bufferView" : 3, "byteOffset" : 0, "componentType" : 5126, "count" : 109, "type" : "VEC3", "max" : [2.7059998512268066, 11.627219200134277, -3.7596349716186523], "min" : [-2.7059998512268066, 6.379219055175781, -3.904099941253662], "name" : "POSITION"}, {"bufferView" : 3, "byteOffset" : 12, "componentType" : 5126, "count" : 109, "type" : "VEC2", "max" : [1, -0], "min" : [0, -1], "name" : "TEXCOORD_0"}, {"bufferView" : 0, "byteOffset" : 27192, "componentType" : 5123, "count" : 4086, "type" : "SCALAR", "max" : [3434], "min" : [0]}, {"bufferView" : 4, "byteOffset" : 0, "componentType" : 5126, "count" : 3435, "type" : "VEC3", "max" : [0.2665000259876251, 7.4862189292907715, 4.135385036468506], "min" : [-0.523559033870697, 7.076219081878662, -2.944084882736206], "name" : "POSITION"}, {"bufferView" : 4, "byteOffset" : 12, "componentType" : 5126, "count" : 3435, "type" : "VEC2", "max" : [0, -0], "min" : [0, -0], "name" : "TEXCOORD_0"}, {"bufferView" : 0, "byteOffset" : 35364, "componentType" : 5123, "count" : 57240, "type" : "SCALAR", "max" : [47808], "min" : [0]}, {"bufferView" : 5, "byteOffset" : 0, "componentType" : 5126, "count" : 47809, "type" : "VEC3", "max" : [0.26630058884620667, 10.507439613342285, 4.403347969055176], "min" : [-0.5913275480270386, 7.112271308898926, -1.834722876548767], "name" : "POSITION"}, {"bufferView" : 5, "byteOffset" : 12, "componentType" : 5126, "count" : 47809, "type" : "VEC2", "max" : [0, -0], "min" : [0, -0], "name" : "TEXCOORD_0"}, {"bufferView" : 0, "byteOffset" : 149844, "componentType" : 5123, "count" : 36231, "type" : "SCALAR", "max" : [30457], "min" : [0]}, {"bufferView" : 6, "byteOffset" : 0, "componentType" : 5126, "count" : 30458, "type" : "VEC3", "max" : [1.5579999685287476, 10.479219436645508, 4.439401149749756], "min" : [-1.5579999685287476, 7.150018692016602, -1.8829318284988403], "name" : "POSITION"}, {"bufferView" : 6, "byteOffset" : 12, "componentType" : 5126, "count" : 30458, "type" : "VEC2", "max" : [0.8931275010108948, -0.2623082995414734], "min" : [0.0853492021560669, -0.8752679228782654], "name" : "TEXCOORD_0"}, {"bufferView" : 0, "byteOffset" : 222308, "componentType" : 5123, "count" : 1200, "type" : "SCALAR", "max" : [1048], "min" : [0]}, {"bufferView" : 7, "byteOffset" : 0, "componentType" : 5126, "count" : 1049, "type" : "VEC3", "max" : [1.4919573068618774, 10.413176536560059, 4.027314186096191], "min" : [-1.4919573068618774, 7.429261684417725, 3.7800846099853516], "name" : "POSITION"}, {"bufferView" : 7, "byteOffset" : 12, "componentType" : 5126, "count" : 1049, "type" : "VEC2", "max" : [1, -0], "min" : [0, -1], "name" : "TEXCOORD_0"}, {"bufferView" : 0, "byteOffset" : 224708, "componentType" : 5123, "count" : 2796, "type" : "SCALAR", "max" : [2334], "min" : [0]}, {"bufferView" : 8, "byteOffset" : 0, "componentType" : 5126, "count" : 2335, "type" : "VEC3", "max" : [0.10249999910593033, 10.496438980102539, 1.8440998792648315], "min" : [-0.14350000023841858, 10.451348304748535, 0.8190998435020447], "name" : "POSITION"}, {"bufferView" : 8, "byteOffset" : 12, "componentType" : 5126, "count" : 2335, "type" : "VEC2", "max" : [0, -0], "min" : [0, -0], "name" : "TEXCOORD_0"}, {"bufferView" : 0, "byteOffset" : 230300, "componentType" : 5123, "count" : 204, "type" : "SCALAR", "max" : [169], "min" : [0]}, {"bufferView" : 9, "byteOffset" : 0, "componentType" : 5126, "count" : 170, "type" : "VEC3", "max" : [0.06419841945171356, 10.48659896850586, 1.8067606687545776], "min" : [-0.10519842058420181, 10.48659896850586, 0.8564389944076538], "name" : "POSITION"}, {"bufferView" : 9, "byteOffset" : 12, "componentType" : 5126, "count" : 170, "type" : "VEC2", "max" : [0, -0], "min" : [0, -0], "name" : "TEXCOORD_0"}, {"bufferView" : 0, "byteOffset" : 230708, "componentType" : 5123, "count" : 4296, "type" : "SCALAR", "max" : [3580], "min" : [0]}, {"bufferView" : 10, "byteOffset" : 0, "componentType" : 5126, "count" : 3581, "type" : "VEC3", "max" : [-0.44690001010894775, 7.990493297576904, 4.369264602661133], "min" : [-0.5780999660491943, 7.15411901473999, -1.7680000066757202], "name" : "POSITION"}, {"bufferView" : 10, "byteOffset" : 12, "componentType" : 5126, "count" : 3581, "type" : "VEC2", "max" : [0.7200000286102295, -0], "min" : [0.5312212109565735, -1], "name" : "TEXCOORD_0"}, {"bufferView" : 0, "byteOffset" : 239300, "componentType" : 5123, "count" : 3615, "type" : "SCALAR", "max" : [3018], "min" : [0]}, {"bufferView" : 11, "byteOffset" : 0, "componentType" : 5126, "count" : 3019, "type" : "VEC3", "max" : [-0.42955344915390015, 8.144481658935547, 4.411214828491211], "min" : [-0.5931539535522461, 7.104403972625732, -1.9350638389587402], "name" : "POSITION"}, {"bufferView" : 11, "byteOffset" : 12, "componentType" : 5126, "count" : 3019, "type" : "VEC2", "max" : [0, -0], "min" : [0, -0], "name" : "TEXCOORD_0"}, {"bufferView" : 0, "byteOffset" : 246532, "componentType" : 5123, "count" : 9390, "type" : "SCALAR", "max" : [7312], "min" : [0]}, {"bufferView" : 12, "byteOffset" : 0, "componentType" : 5126, "count" : 7313, "type" : "VEC3", "max" : [0.21319998800754547, 9.126218795776367, -0.7523432970046997], "min" : [-0.21319998800754547, 8.716218948364258, -0.93684321641922], "name" : "POSITION"}, {"bufferView" : 12, "byteOffset" : 12, "componentType" : 5126, "count" : 7313, "type" : "VEC2", "max" : [0.7131999731063843, 1.4368431568145752], "min" : [0.2868000268936157, 1.2523431777954102], "name" : "TEXCOORD_0"}, {"bufferView" : 0, "byteOffset" : 265312, "componentType" : 5123, "count" : 3096, "type" : "SCALAR", "max" : [2767], "min" : [0]}, {"bufferView" : 13, "byteOffset" : 0, "componentType" : 5126, "count" : 2768, "type" : "VEC3", "max" : [0.4518570601940155, 10.474706649780273, 2.5515458583831787], "min" : [-0.4518570601940155, 10.406866073608398, 2.276454448699951], "name" : "POSITION"}, {"bufferView" : 13, "byteOffset" : 12, "componentType" : 5126, "count" : 2768, "type" : "VEC2", "max" : [0, -0], "min" : [0, -0], "name" : "TEXCOORD_0"}, {"bufferView" : 0, "byteOffset" : 271504, "componentType" : 5123, "count" : 6, "type" : "SCALAR", "max" : [5], "min" : [0]}, {"bufferView" : 14, "byteOffset" : 0, "componentType" : 5126, "count" : 6, "type" : "VEC3", "max" : [49.20000076293945, 70.42121887207031, -3.8910088539123535], "min" : [-49.20000076293945, -52.57878112792969, -3.8910088539123535], "name" : "POSITION"}], "asset" : {"generator" : "Aspose.3D 22.1", "version" : "2.0"}, "buffers" : [{"uri" : "data:application/octet-stream;base64,", "byteLength" : 2986648}], "bufferViews" : [{"buffer" : 0, "byteOffset" : 0, "byteLength" : 271516, "target" : 34963}, {"buffer" : 0, "byteOffset" : 271520, "byteLength" : 63840, "byteStride" : 20, "target" : 34962}, {"buffer" : 0, "byteOffset" : 335364, "byteLength" : 205440, "byteStride" : 20, "target" : 34962}, {"buffer" : 0, "byteOffset" : 540808, "byteLength" : 2640, "byteStride" : 20, "target" : 34962}, {"buffer" : 0, "byteOffset" : 543452, "byteLength" : 81720, "byteStride" : 20, "target" : 34962}, {"buffer" : 0, "byteOffset" : 625176, "byteLength" : 1144800, "byteStride" : 20, "target" : 34962}, {"buffer" : 0, "byteOffset" : 1769980, "byteLength" : 724620, "byteStride" : 20, "target" : 34962}, {"buffer" : 0, "byteOffset" : 2494604, "byteLength" : 24000, "byteStride" : 20, "target" : 34962}, {"buffer" : 0, "byteOffset" : 2518608, "byteLength" : 55920, "byteStride" : 20, "target" : 34962}, {"buffer" : 0, "byteOffset" : 2574532, "byteLength" : 4080, "byteStride" : 20, "target" : 34962}, {"buffer" : 0, "byteOffset" : 2578616, "byteLength" : 85920, "byteStride" : 20, "target" : 34962}, {"buffer" : 0, "byteOffset" : 2664540, "byteLength" : 72300, "byteStride" : 20, "target" : 34962}, {"buffer" : 0, "byteOffset" : 2736844, "byteLength" : 187800, "byteStride" : 20, "target" : 34962}, {"buffer" : 0, "byteOffset" : 2924648, "byteLength" : 61920, "byteStride" : 20, "target" : 34962}, {"buffer" : 0, "byteOffset" : 2986572, "byteLength" : 72, "byteStride" : 12, "target" : 34962}], "images" : [{"uri" : "19silo.jpg"}, {"uri" : "19bot.jpg"}, {"uri" : "19roof.jpg"}, {"uri" : "19pipe.jpg"}, {"uri" : "19silo.jpg"}], "materials" : [{"name" : "", "pbrMetallicRoughness" : {"baseColorFactor" : [0.7098039215686275, 0.9725490196078431, 0.596078431372549, 1], "baseColorTexture" : {"index" : 0, "texCoord" : 0}, "metallicFactor" : 0, "roughnessFactor" : 0}, "emissiveFactor" : [0, 0, 0], "alphaMode" : "OPAQUE", "doubleSided" : false}, {"name" : "", "pbrMetallicRoughness" : {"baseColorFactor" : [0.7803921568627451, 0.7803921568627451, 0.7803921568627451, 1], "metallicFactor" : 0, "roughnessFactor" : 0}, "emissiveFactor" : [0, 0, 0], "alphaMode" : "OPAQUE", "doubleSided" : false}, {"name" : "", "pbrMetallicRoughness" : {"baseColorFactor" : [0.6235294117647059, 0.7764705882352941, 0.9411764705882353, 1], "baseColorTexture" : {"index" : 1, "texCoord" : 0}, "metallicFactor" : 0, "roughnessFactor" : 0}, "emissiveFactor" : [0, 0, 0], "alphaMode" : "OPAQUE", "doubleSided" : false}, {"name" : "", "pbrMetallicRoughness" : {"baseColorFactor" : [0.8588235294117647, 0.803921568627451, 0.7098039215686275, 1], "metallicFactor" : 0, "roughnessFactor" : 0}, "emissiveFactor" : [0, 0, 0], "alphaMode" : "OPAQUE", "doubleSided" : false}, {"name" : "", "pbrMetallicRoughness" : {"baseColorFactor" : [0.7803921568627451, 0.7803921568627451, 0.7803921568627451, 1], "metallicFactor" : 0, "roughnessFactor" : 0}, "emissiveFactor" : [0, 0, 0], "alphaMode" : "OPAQUE", "doubleSided" : false}, {"name" : "", "pbrMetallicRoughness" : {"baseColorFactor" : [0.7098039215686275, 0.9725490196078431, 0.596078431372549, 1], "baseColorTexture" : {"index" : 0, "texCoord" : 0}, "metallicFactor" : 0, "roughnessFactor" : 0}, "emissiveFactor" : [0, 0, 0], "alphaMode" : "OPAQUE", "doubleSided" : false}, {"name" : "", "pbrMetallicRoughness" : {"baseColorFactor" : [0.9568627450980393, 0.6078431372549019, 0.8862745098039215, 1], "baseColorTexture" : {"index" : 2, "texCoord" : 0}, "metallicFactor" : 0, "roughnessFactor" : 0}, "emissiveFactor" : [0, 0, 0], "alphaMode" : "OPAQUE", "doubleSided" : false}, {"name" : "", "pbrMetallicRoughness" : {"baseColorFactor" : [0.25882352941176473, 0.24705882352941178, 0.4196078431372549, 1], "metallicFactor" : 0, "roughnessFactor" : 0}, "emissiveFactor" : [0, 0, 0], "alphaMode" : "OPAQUE", "doubleSided" : false}, {"name" : "", "pbrMetallicRoughness" : {"baseColorFactor" : [0.0196078431372549, 0.1568627450980392, 0.23921568627450981, 1], "metallicFactor" : 0, "roughnessFactor" : 0}, "emissiveFactor" : [0, 0, 0], "alphaMode" : "OPAQUE", "doubleSided" : false}, {"name" : "", "pbrMetallicRoughness" : {"baseColorFactor" : [0.9529411764705882, 0.611764705882353, 0.7333333333333333, 1], "baseColorTexture" : {"index" : 3, "texCoord" : 0}, "metallicFactor" : 0, "roughnessFactor" : 0}, "emissiveFactor" : [0, 0, 0], "alphaMode" : "OPAQUE", "doubleSided" : false}, {"name" : "", "pbrMetallicRoughness" : {"baseColorFactor" : [0.6235294117647059, 0.6235294117647059, 0.6235294117647059, 1], "metallicFactor" : 0, "roughnessFactor" : 0}, "emissiveFactor" : [0, 0, 0], "alphaMode" : "OPAQUE", "doubleSided" : false}, {"name" : "", "pbrMetallicRoughness" : {"baseColorFactor" : [0.9529411764705882, 0.611764705882353, 0.7333333333333333, 1], "baseColorTexture" : {"index" : 4, "texCoord" : 0}, "metallicFactor" : 0, "roughnessFactor" : 0}, "emissiveFactor" : [0, 0, 0], "alphaMode" : "OPAQUE", "doubleSided" : false}, {"name" : "", "pbrMetallicRoughness" : {"baseColorFactor" : [0.5647058823529412, 0.5647058823529412, 0.5647058823529412, 1], "metallicFactor" : 0, "roughnessFactor" : 0}, "emissiveFactor" : [0, 0, 0], "alphaMode" : "OPAQUE", "doubleSided" : false}, {"name" : "", "pbrMetallicRoughness" : {"baseColorFactor" : [0.8352941176470589, 0.7725490196078432, 0.7333333333333333, 1], "metallicFactor" : 0, "roughnessFactor" : 0}, "emissiveFactor" : [0, 0, 0], "alphaMode" : "OPAQUE", "doubleSided" : false}], "meshes" : [{"primitives" : [{"attributes" : {"POSITION" : 1, "TEXCOORD_0" : 2}, "indices" : 0, "material" : 0, "mode" : 4}, {"attributes" : {"POSITION" : 4, "TEXCOORD_0" : 5}, "indices" : 3, "material" : 1, "mode" : 4}, {"attributes" : {"POSITION" : 7, "TEXCOORD_0" : 8}, "indices" : 6, "material" : 2, "mode" : 4}], "name" : "bottom"}, {"primitives" : [{"attributes" : {"POSITION" : 10, "TEXCOORD_0" : 11}, "indices" : 9, "material" : 3, "mode" : 4}, {"attributes" : {"POSITION" : 13, "TEXCOORD_0" : 14}, "indices" : 12, "material" : 4, "mode" : 4}, {"attributes" : {"POSITION" : 16, "TEXCOORD_0" : 17}, "indices" : 15, "material" : 5, "mode" : 4}, {"attributes" : {"POSITION" : 19, "TEXCOORD_0" : 20}, "indices" : 18, "material" : 6, "mode" : 4}, {"attributes" : {"POSITION" : 22, "TEXCOORD_0" : 23}, "indices" : 21, "material" : 7, "mode" : 4}, {"attributes" : {"POSITION" : 25, "TEXCOORD_0" : 26}, "indices" : 24, "material" : 8, "mode" : 4}, {"attributes" : {"POSITION" : 28, "TEXCOORD_0" : 29}, "indices" : 27, "material" : 9, "mode" : 4}, {"attributes" : {"POSITION" : 31, "TEXCOORD_0" : 32}, "indices" : 30, "material" : 10, "mode" : 4}, {"attributes" : {"POSITION" : 34, "TEXCOORD_0" : 35}, "indices" : 33, "material" : 11, "mode" : 4}, {"attributes" : {"POSITION" : 37, "TEXCOORD_0" : 38}, "indices" : 36, "material" : 12, "mode" : 4}], "name" : "main"}, {"primitives" : [{"attributes" : {"POSITION" : 40}, "indices" : 39, "material" : 13, "mode" : 4}], "name" : "enviro"}], "nodes" : [{"matrix" : [-1, 0, 0, 0, 0, 0, 1, 0, 0, 1, 0, 0, 0, 0, 0, 1], "mesh" : 0, "name" : "bottom"}, {"matrix" : [-1, 0, 0, 0, 0, 0, 1, 0, 0, 1, 0, 0, 0, 0, 0, 1], "mesh" : 1, "name" : "main"}, {"matrix" : [-1, 0, 0, 0, 0, 0, 1, 0, 0, 1, 0, 0, 0, 0, 0, 1], "mesh" : 2, "name" : "enviro"}], "samplers" : [{"magFilter" : 9729, "minFilter" : 9729, "wrapS" : 10497, "wrapT" : 10497}, {"magFilter" : 9729, "minFilter" : 9729, "wrapS" : 10497, "wrapT" : 10497}, {"magFilter" : 9729, "minFilter" : 9729, "wrapS" : 10497, "wrapT" : 10497}, {"magFilter" : 9729, "minFilter" : 9729, "wrapS" : 10497, "wrapT" : 10497}, {"magFilter" : 9729, "minFilter" : 9729, "wrapS" : 10497, "wrapT" : 10497}], "scene" : 0, "scenes" : [{"nodes" : [0, 1, 2]}], "textures" : [{"sampler" : 0, "source" : 0}, {"sampler" : 1, "source" : 1}, {"sampler" : 2, "source" : 2}, {"sampler" : 3, "source" : 3}, {"sampler" : 4, "source" : 4}]}