{"accessors":[{"bufferView":0,"byteOffset":0,"componentType":5126,"count":168,"max":[11.0,19.0,37.0],"min":[-27.0,-19.0,-5.995204332975845e-15],"type":"VEC3"},{"bufferView":1,"byteOffset":0,"componentType":5123,"count":168,"type":"SCALAR"}],"asset":{"generator":"Open CASCADE Technology [www.opencascade.com]","version":"2.0","extras":{"Originating system":"Autodesk.Tinkercad","Read files list":"Exquisite Jaagub-Lahdi.glb"}},"bufferViews":[{"buffer":0,"byteLength":2016,"byteOffset":0,"byteStride":12,"target":34962},{"buffer":0,"byteLength":336,"byteOffset":2016,"target":34963}],"buffers":[{"byteLength":2352,"uri":"Exquisite Jaagub-Lahdi.bin"}],"materials":[{"name":"mat_0","pbrMetallicRoughness":{"baseColorFactor":[1.0,1.0,1.0,1.0],"metallicFactor":0.5,"roughnessFactor":0.5}}],"meshes":[{"name":"Mesh_Mesh_head_geo.001_lambert2SG.001","primitives":[{"attributes":{"POSITION":0},"indices":1,"material":0,"mode":4}]}],"nodes":[{"rotation":[-0.7071067811865475,0.0,0.0,0.7071067811865476],"mesh":0,"name":"Exquisite Jaagub-Lahdi.glb"}],"scene":0,"scenes":[{"nodes":[0]}]}