{
  "accessors": [
    {
      "bufferView": 2,
      "componentType": 5126,
      "count": 578,
      "max": [
        18.885099411010742,
        24.08970069885254,
        85.48419952392578
      ],
      "min": [
        5.7870001792907715,
        10.215900421142578,
        79.10199737548828
      ],
      "type": "VEC3"
    },
    {
      "bufferView": 2,
      "byteOffset": 6936,
      "componentType": 5126,
      "count": 578,
      "max": [
        1.0,
        0.992713212966919,
        1.0
      ],
      "min": [
        -1.0,
        -0.992713212966919,
        -1.0
      ],
      "type": "VEC3"
    },
    {
      "bufferView": 1,
      "componentType": 5126,
      "count": 578,
      "max": [
        0.9807999730110168,
        1.0
      ],
      "min": [
        -0.019200000911951065,
        0.0
      ],
      "type": "VEC2"
    },
    {
      "bufferView": 0,
      "componentType": 5125,
      "count": 3336,
      "type": "SCALAR"
    },
    {
      "bufferView": 2,
      "byteOffset": 13872,
      "componentType": 5126,
      "count": 2105,
      "max": [
        40.615299224853516,
        33.97669982910156,
        91.63939666748047
      ],
      "min": [
        -39.345401763916016,
        -45.984100341796875,
        0.7681000232696533
      ],
      "type": "VEC3"
    },
    {
      "bufferView": 2,
      "byteOffset": 39132,
      "componentType": 5126,
      "count": 2105,
      "max": [
        0.9656022191047668,
        0.9656022191047668,
        1.0
      ],
      "min": [
        -0.9656022191047668,
        -0.9656022191047668,
        -1.0
      ],
      "type": "VEC3"
    },
    {
      "bufferView": 1,
      "byteOffset": 4624,
      "componentType": 5126,
      "count": 2105,
      "max": [
        0.9750000238418579,
        1.0
      ],
      "min": [
        -0.02500000037252903,
        0.0
      ],
      "type": "VEC2"
    },
    {
      "bufferView": 0,
      "byteOffset": 13344,
      "componentType": 5125,
      "count": 12336,
      "type": "SCALAR"
    }
  ],
  "asset": {
    "extras": {
      "author": "gabi72 (https://sketchfab.com/gabi72)",
      "license": "CC-BY-4.0 (http://creativecommons.org/licenses/by/4.0/)",
      "source": "https://sketchfab.com/3d-models/water-tank-cf3c5386e06b4690ae72a0ff90f82214",
      "title": "Water Tank"
    },
    "generator": "Sketchfab-12.68.0",
    "version": "2.0"
  },
  "bufferViews": [
    {
      "buffer": 0,
      "byteLength": 62688,
      "name": "floatBufferViews",
      "target": 34963
    },
    {
      "buffer": 0,
      "byteLength": 21464,
      "byteOffset": 62688,
      "byteStride": 8,
      "name": "floatBufferViews",
      "target": 34962
    },
    {
      "buffer": 0,
      "byteLength": 64392,
      "byteOffset": 84152,
      "byteStride": 12,
      "name": "floatBufferViews",
      "target": 34962
    }
  ],
  "buffers": [
    {
      "byteLength": 148544,
      "uri": "scene.bin"
    }
  ],
  "materials": [
    {
      "doubleSided": true,
      "name": "Material__14",
      "pbrMetallicRoughness": {
        "baseColorFactor": [
          0.0209,
          0.0216,
          0.021,
          1.0
        ],
        "metallicFactor": 0.0
      }
    },
    {
      "doubleSided": true,
      "name": "Material__2",
      "pbrMetallicRoughness": {
        "baseColorFactor": [
          0.17849999999999994,
          0.3596999999999999,
          0.24379999999999968,
          1.0
        ],
        "metallicFactor": 0.0
      }
    }
  ],
  "meshes": [
    {
      "name": "Object_0",
      "primitives": [
        {
          "attributes": {
            "NORMAL": 1,
            "POSITION": 0,
            "TEXCOORD_0": 2
          },
          "indices": 3,
          "material": 0,
          "mode": 4
        }
      ]
    },
    {
      "name": "Object_1",
      "primitives": [
        {
          "attributes": {
            "NORMAL": 5,
            "POSITION": 4,
            "TEXCOORD_0": 6
          },
          "indices": 7,
          "material": 1,
          "mode": 4
        }
      ]
    }
  ],
  "nodes": [
    {
      "children": [
        1
      ],
      "matrix": [
        -0.6027179956436157,
        -0.05186234787106531,
        0.7962671518325806,
        0.0,
        0.7978360056877136,
        -0.05634656548500074,
        0.6002355813980103,
        0.0,
        0.013737293891608715,
        0.997063398361206,
        0.075338736176491,
        0.0,
        5.172953128814697,
        -0.16967572271824008,
        5.620857238769531,
        1.0
      ],
      "name": "Sketchfab_model"
    },
    {
      "children": [
        2,
        3
      ],
      "name": "Gabi project - water tank.obj.cleaner.materialmerger.gles"
    },
    {
      "mesh": 0,
      "name": "Object_2"
    },
    {
      "mesh": 1,
      "name": "Object_3"
    }
  ],
  "scene": 0,
  "scenes": [
    {
      "name": "Sketchfab_Scene",
      "nodes": [
        0
      ]
    }
  ]
}
