{"accessors":[{"bufferView":0,"componentType":5125,"count":4050,"max":[1283.0],"min":[0.0],"type":"SCALAR"},{"bufferView":1,"componentType":5126,"count":1284,"max":[0.02500000037252903,2.168404344971009e-19,0.0037499999161809685],"min":[-0.0012499999720603228,-0.013749999925494194,-0.0037499999161809685],"type":"VEC3"},{"bufferView":2,"componentType":5126,"count":1284,"max":[1.0,1.0,1.0],"min":[-1.0,-1.0,-1.0],"type":"VEC3"}],"asset":{"generator":"SimLab GLTF","version":"2.0"},"bufferViews":[{"buffer":0,"byteLength":16200,"target":34963},{"buffer":0,"byteLength":15408,"byteOffset":16200,"byteStride":12,"target":34962},{"buffer":0,"byteLength":15408,"byteOffset":31608,"byteStride":12,"target":34962}],"buffers":[{"byteLength":47016,"uri":"pipe for golden turbine.bin"}],"materials":[{"name":"Mtl","alphaMode":"MASK","doubleSided":true,"pbrMetallicRoughness":{"baseColorFactor":[0.7921568751335144,0.8196078538894653,0.9333333373069763,1.0],"metallicFactor":0.0}}],"meshes":[{"primitives":[{"attributes":{"NORMAL":2,"POSITION":1},"indices":0,"material":0,"mode":4}]}],"nodes":[{"children":[1,2],"matrix":[1.0,0.0,0.0,0.0,0.0,4.4896593387466768e-11,-1.0,0.0,0.0,1.0,4.4896593387466768e-11,0.0,0.0,0.0,0.0,1.0]},{"name":"Camera-1","rotation":[-0.7071067690849304,0.0,0.0,-0.7071067690849304],"translation":[0.011874999850988388,-0.11187499761581421,0.0]},{"name":"Body_1","children":[4],"rotation":[0.0,0.0,0.0,-1.0]},{"mesh":0},{"children":[3]}],"scene":0,"scenes":[{"nodes":[0]}]}