{
  "accessors": [
    {
      "bufferView": 2,
      "componentType": 5126,
      "count": 611,
      "max": [
        129.10000610351563,
        16.262346267700195,
        129.10000610351563
      ],
      "min": [
        -129.10000610351563,
        -16.262346267700195,
        -129.10000610351563
      ],
      "type": "VEC3"
    },
    {
      "bufferView": 2,
      "byteOffset": 7332,
      "componentType": 5126,
      "count": 611,
      "max": [
        1.0,
        1.0,
        1.0
      ],
      "min": [
        -1.0,
        -1.0,
        -1.0
      ],
      "type": "VEC3"
    },
    {
      "bufferView": 1,
      "componentType": 5126,
      "count": 611,
      "max": [
        1.0,
        1.0
      ],
      "min": [
        0.0,
        0.0
      ],
      "type": "VEC2"
    },
    {
      "bufferView": 0,
      "componentType": 5125,
      "count": 2304,
      "type": "SCALAR"
    },
    {
      "bufferView": 2,
      "byteOffset": 14664,
      "componentType": 5126,
      "count": 184,
      "max": [
        15.686346054077148,
        -281.1289978027344,
        274.9897155761719
      ],
      "min": [
        -15.686346054077148,
        -312.501708984375,
        257.698974609375
      ],
      "type": "VEC3"
    },
    {
      "bufferView": 2,
      "byteOffset": 16872,
      "componentType": 5126,
      "count": 184,
      "max": [
        1.0,
        1.0,
        1.0
      ],
      "min": [
        -1.0,
        -1.0,
        -1.0
      ],
      "type": "VEC3"
    },
    {
      "bufferView": 1,
      "byteOffset": 4888,
      "componentType": 5126,
      "count": 184,
      "max": [
        1.0,
        1.0
      ],
      "min": [
        0.0,
        0.0
      ],
      "type": "VEC2"
    },
    {
      "bufferView": 0,
      "byteOffset": 9216,
      "componentType": 5125,
      "count": 432,
      "type": "SCALAR"
    },
    {
      "bufferView": 2,
      "byteOffset": 19080,
      "componentType": 5126,
      "count": 584,
      "max": [
        19.957948684692383,
        -276.8573913574219,
        278.6134033203125
      ],
      "min": [
        -19.957948684692383,
        -316.7733154296875,
        259.518310546875
      ],
      "type": "VEC3"
    },
    {
      "bufferView": 2,
      "byteOffset": 26088,
      "componentType": 5126,
      "count": 584,
      "max": [
        1.0,
        1.0,
        1.0
      ],
      "min": [
        -1.0,
        -1.0,
        -1.0
      ],
      "type": "VEC3"
    },
    {
      "bufferView": 1,
      "byteOffset": 6360,
      "componentType": 5126,
      "count": 584,
      "max": [
        1.0,
        1.0
      ],
      "min": [
        0.0,
        0.0
      ],
      "type": "VEC2"
    },
    {
      "bufferView": 0,
      "byteOffset": 10944,
      "componentType": 5125,
      "count": 1728,
      "type": "SCALAR"
    },
    {
      "bufferView": 2,
      "byteOffset": 33096,
      "componentType": 5126,
      "count": 65532,
      "max": [
        276.56103515625,
        353.4309997558594,
        280.39013671875
      ],
      "min": [
        -283.9203186035156,
        -353.4309997558594,
        -276.3925476074219
      ],
      "type": "VEC3"
    },
    {
      "bufferView": 2,
      "byteOffset": 819480,
      "componentType": 5126,
      "count": 65532,
      "max": [
        1.0,
        1.0,
        0.9995512962341309
      ],
      "min": [
        -1.0,
        -1.0,
        -0.8290440440177917
      ],
      "type": "VEC3"
    },
    {
      "bufferView": 1,
      "byteOffset": 11032,
      "componentType": 5126,
      "count": 65532,
      "max": [
        1.0,
        0.9794605374336243
      ],
      "min": [
        0.0,
        0.10054242610931396
      ],
      "type": "VEC2"
    },
    {
      "bufferView": 0,
      "byteOffset": 17856,
      "componentType": 5125,
      "count": 382947,
      "type": "SCALAR"
    },
    {
      "bufferView": 2,
      "byteOffset": 1605864,
      "componentType": 5126,
      "count": 57180,
      "max": [
        283.9203186035156,
        353.42999267578125,
        283.74737548828125
      ],
      "min": [
        -270.0229187011719,
        -353.4309997558594,
        -283.74737548828125
      ],
      "type": "VEC3"
    },
    {
      "bufferView": 2,
      "byteOffset": 2292024,
      "componentType": 5126,
      "count": 57180,
      "max": [
        1.0,
        1.0,
        1.0
      ],
      "min": [
        -1.0,
        -1.0,
        -1.0
      ],
      "type": "VEC3"
    },
    {
      "bufferView": 1,
      "byteOffset": 535288,
      "componentType": 5126,
      "count": 57180,
      "max": [
        1.0,
        0.8788736462593079
      ],
      "min": [
        0.03819555416703224,
        0.12115466594696045
      ],
      "type": "VEC2"
    },
    {
      "bufferView": 0,
      "byteOffset": 1549644,
      "componentType": 5125,
      "count": 320901,
      "type": "SCALAR"
    },
    {
      "bufferView": 2,
      "byteOffset": 2978184,
      "componentType": 5126,
      "count": 118,
      "max": [
        6.985332489013672,
        333.65411376953125,
        131.75672912597656
      ],
      "min": [
        -6.985332489013672,
        319.6834411621094,
        129.58633422851563
      ],
      "type": "VEC3"
    },
    {
      "bufferView": 2,
      "byteOffset": 2979600,
      "componentType": 5126,
      "count": 118,
      "max": [
        1.0,
        1.0,
        0.00021954996918793768
      ],
      "min": [
        -0.999575138092041,
        -1.0,
        -6.084354936319869e-06
      ],
      "type": "VEC3"
    },
    {
      "bufferView": 1,
      "byteOffset": 992728,
      "componentType": 5126,
      "count": 118,
      "max": [
        1.0,
        0.47165167331695557
      ],
      "min": [
        0.0,
        0.35603201389312744
      ],
      "type": "VEC2"
    },
    {
      "bufferView": 0,
      "byteOffset": 2833248,
      "componentType": 5125,
      "count": 348,
      "type": "SCALAR"
    }
  ],
  "asset": {
    "extras": {
      "author": "Osmany.Areas (https://sketchfab.com/Osmany.Areas)",
      "license": "CC-BY-4.0 (http://creativecommons.org/licenses/by/4.0/)",
      "source": "https://sketchfab.com/3d-models/water-storage-tank-f008287c7e7c49d0aae4208a51625ce3",
      "title": "water storage tank"
    },
    "generator": "Sketchfab-12.66.0",
    "version": "2.0"
  },
  "bufferViews": [
    {
      "buffer": 0,
      "byteLength": 2834640,
      "name": "floatBufferViews",
      "target": 34963
    },
    {
      "buffer": 0,
      "byteLength": 993672,
      "byteOffset": 2834640,
      "byteStride": 8,
      "name": "floatBufferViews",
      "target": 34962
    },
    {
      "buffer": 0,
      "byteLength": 2981016,
      "byteOffset": 3828312,
      "byteStride": 12,
      "name": "floatBufferViews",
      "target": 34962
    }
  ],
  "buffers": [
    {
      "byteLength": 6809328,
      "uri": "scene.bin"
    }
  ],
  "extensionsUsed": [
    "KHR_materials_clearcoat"
  ],
  "images": [
    {
      "uri": "textures/material_metallicRoughness.png"
    }
  ],
  "materials": [
    {
      "doubleSided": true,
      "name": "Boole_1__0",
      "pbrMetallicRoughness": {
        "baseColorFactor": [
          0.08151836125830979,
          0.08151836125830979,
          0.08151836125830979,
          1.0
        ],
        "metallicFactor": 0.6644489235053415,
        "roughnessFactor": 0.42124199697207376
      }
    },
    {
      "doubleSided": true,
      "name": "Mat.2",
      "pbrMetallicRoughness": {
        "baseColorFactor": [
          0.0,
          0.0,
          0.0,
          1.0
        ],
        "metallicFactor": 0.4394825164620689,
        "roughnessFactor": 0.7009299624853316
      }
    },
    {
      "doubleSided": true,
      "extensions": {
        "KHR_materials_clearcoat": {
          "clearcoatFactor": 1.0,
          "clearcoatRoughnessFactor": 0.04
        }
      },
      "name": "Mat.1",
      "pbrMetallicRoughness": {
        "baseColorFactor": [
          0.051766289830066425,
          0.051766289830066425,
          0.051766289830066425,
          1.0
        ],
        "metallicFactor": 0.45772303595206393,
        "roughnessFactor": 0.5306851139120442
      }
    },
    {
      "doubleSided": true,
      "name": "material",
      "pbrMetallicRoughness": {
        "baseColorFactor": [
          0.00390279340537424,
          0.00390279340537424,
          0.00390279340537424,
          1.0
        ],
        "metallicRoughnessTexture": {
          "index": 0
        },
        "roughnessFactor": 0.5605174835379312
      }
    },
    {
      "doubleSided": true,
      "name": "Mat.3",
      "pbrMetallicRoughness": {
        "baseColorFactor": [
          0.006693081092985053,
          0.07909195747028509,
          0.2937221185198367,
          1.0
        ],
        "metallicFactor": 0.13547385829548425,
        "roughnessFactor": 0.5124445944220491
      }
    }
  ],
  "meshes": [
    {
      "name": "Cube_Mat.2_0",
      "primitives": [
        {
          "attributes": {
            "NORMAL": 1,
            "POSITION": 0,
            "TEXCOORD_0": 2
          },
          "indices": 3,
          "material": 1,
          "mode": 4
        }
      ]
    },
    {
      "name": "Boole_1_Mat.1_0",
      "primitives": [
        {
          "attributes": {
            "NORMAL": 5,
            "POSITION": 4,
            "TEXCOORD_0": 6
          },
          "indices": 7,
          "material": 2,
          "mode": 4
        }
      ]
    },
    {
      "name": "Boole_1_Mat_0",
      "primitives": [
        {
          "attributes": {
            "NORMAL": 9,
            "POSITION": 8,
            "TEXCOORD_0": 10
          },
          "indices": 11,
          "material": 3,
          "mode": 4
        }
      ]
    },
    {
      "name": "Boole_1_Mat.3_0",
      "primitives": [
        {
          "attributes": {
            "NORMAL": 13,
            "POSITION": 12,
            "TEXCOORD_0": 14
          },
          "indices": 15,
          "material": 4,
          "mode": 4
        }
      ]
    },
    {
      "name": "Boole_1_Mat.3_0",
      "primitives": [
        {
          "attributes": {
            "NORMAL": 17,
            "POSITION": 16,
            "TEXCOORD_0": 18
          },
          "indices": 19,
          "material": 4,
          "mode": 4
        }
      ]
    },
    {
      "name": "Boole_1__0",
      "primitives": [
        {
          "attributes": {
            "NORMAL": 21,
            "POSITION": 20,
            "TEXCOORD_0": 22
          },
          "indices": 23,
          "material": 0,
          "mode": 4
        }
      ]
    }
  ],
  "nodes": [
    {
      "children": [
        1
      ],
      "matrix": [
        1.0,
        0.0,
        0.0,
        0.0,
        0.0,
        2.220446049250313e-16,
        -1.0,
        0.0,
        0.0,
        1.0,
        2.220446049250313e-16,
        0.0,
        0.0,
        0.0,
        0.0,
        1.0
      ],
      "name": "Sketchfab_model"
    },
    {
      "children": [
        2
      ],
      "matrix": [
        1.0,
        0.0,
        0.0,
        0.0,
        0.0,
        0.0,
        1.0,
        0.0,
        0.0,
        -1.0,
        0.0,
        0.0,
        0.0,
        0.0,
        0.0,
        1.0
      ],
      "name": "ff5067dcd1064384b2aa99c796f13a7a.fbx"
    },
    {
      "children": [
        3,
        5
      ],
      "name": "RootNode"
    },
    {
      "children": [
        4
      ],
      "matrix": [
        -0.539515488527694,
        -0.1709790533862671,
        -0.8244326539759689,
        0.0,
        -0.09362449974255407,
        0.9852746638897887,
        -0.1430674307619329,
        0.0,
        0.8367541399280197,
        -2.7755575615628914e-17,
        -0.5475787699622037,
        0.0,
        655.753173828125,
        522.5310668945313,
        881.119384765625,
        1.0
      ],
      "name": "CINEMA_4D_Editor"
    },
    {
      "name": "Object_4"
    },
    {
      "children": [
        6,
        8
      ],
      "matrix": [
        0.804893797355914,
        0.0,
        -0.5934188866037016,
        0.0,
        0.0,
        1.0,
        0.0,
        0.0,
        0.5934188866037016,
        0.0,
        0.804893797355914,
        0.0,
        0.0,
        536.8515014648438,
        0.0,
        1.0
      ],
      "name": "Null"
    },
    {
      "children": [
        7
      ],
      "matrix": [
        1.0,
        0.0,
        0.0,
        0.0,
        0.0,
        1.0,
        0.0,
        0.0,
        0.0,
        0.0,
        1.0,
        0.0,
        0.0,
        183.94134521484375,
        0.0,
        1.0
      ],
      "name": "Cube"
    },
    {
      "mesh": 0,
      "name": "Cube_Mat.2_0"
    },
    {
      "children": [
        9,
        10,
        11,
        12,
        13
      ],
      "matrix": [
        1.0,
        0.0,
        0.0,
        0.0,
        0.0,
        1.0,
        0.0,
        0.0,
        0.0,
        0.0,
        1.0,
        0.0,
        0.0,
        -183.94134521484375,
        0.0,
        1.0
      ],
      "name": "Boole_1"
    },
    {
      "mesh": 1,
      "name": "Boole_1_Mat.1_0"
    },
    {
      "mesh": 2,
      "name": "Boole_1_Mat_0"
    },
    {
      "mesh": 3,
      "name": "Boole_1_Mat.3_0"
    },
    {
      "mesh": 4,
      "name": "Boole_1_Mat.3_0"
    },
    {
      "mesh": 5,
      "name": "Boole_1__0"
    }
  ],
  "samplers": [
    {
      "magFilter": 9729,
      "minFilter": 9987,
      "wrapS": 10497,
      "wrapT": 10497
    }
  ],
  "scene": 0,
  "scenes": [
    {
      "name": "Sketchfab_Scene",
      "nodes": [
        0
      ]
    }
  ],
  "textures": [
    {
      "sampler": 0,
      "source": 0
    }
  ]
}
