{"accessors":[{"bufferView":0,"componentType":5125,"count":5196,"max":[1618.0],"min":[0.0],"type":"SCALAR"},{"bufferView":1,"componentType":5126,"count":1619,"max":[-2.3706731657973758e-16,0.0024999999441206457,0.0024999999441206457],"min":[-0.12269999831914902,-0.12686434388160706,-0.0024999999441206457],"type":"VEC3"},{"bufferView":2,"componentType":5126,"count":1619,"max":[1.0,1.0,1.0],"min":[-1.0,-1.0,-1.0],"type":"VEC3"},{"bufferView":3,"componentType":5125,"count":1728,"max":[641.0],"min":[0.0],"type":"SCALAR"},{"bufferView":4,"componentType":5126,"count":642,"max":[0.019999999552965165,0.10000000149011612,0.0],"min":[-0.019999999552965165,-0.03999999910593033,-0.07999999821186066],"type":"VEC3"},{"bufferView":5,"componentType":5126,"count":642,"max":[1.0,1.0,1.0],"min":[-1.0,-1.0,-1.0],"type":"VEC3"},{"bufferView":6,"componentType":5125,"count":4014,"max":[1422.0],"min":[0.0],"type":"SCALAR"},{"bufferView":7,"componentType":5126,"count":1423,"max":[0.675000011920929,0.004999999888241291,0.009999999776482582],"min":[-2.775557602921922e-18,-0.3038316071033478,-0.009999999776482582],"type":"VEC3"},{"bufferView":8,"componentType":5126,"count":1423,"max":[1.0,1.0,1.0],"min":[-1.0,-1.0,-1.0],"type":"VEC3"},{"bufferView":9,"componentType":5125,"count":360,"max":[133.0],"min":[0.0],"type":"SCALAR"},{"bufferView":10,"componentType":5126,"count":134,"max":[0.017500000074505807,0.017404133453965188,0.0],"min":[-0.017500000074505807,-0.017404133453965188,-0.15000000596046449],"type":"VEC3"},{"bufferView":11,"componentType":5126,"count":134,"max":[1.0,0.9945219159126282,1.0],"min":[-1.0,-0.9945219159126282,-1.0],"type":"VEC3"}],"asset":{"generator":"SimLab GLTF","version":"2.0"},"bufferViews":[{"buffer":0,"byteLength":20784,"target":34963},{"buffer":0,"byteLength":19428,"byteOffset":20784,"byteStride":12,"target":34962},{"buffer":0,"byteLength":19428,"byteOffset":40212,"byteStride":12,"target":34962},{"buffer":0,"byteLength":6912,"byteOffset":59640,"target":34963},{"buffer":0,"byteLength":7704,"byteOffset":66552,"byteStride":12,"target":34962},{"buffer":0,"byteLength":7704,"byteOffset":74256,"byteStride":12,"target":34962},{"buffer":0,"byteLength":16056,"byteOffset":81960,"target":34963},{"buffer":0,"byteLength":17076,"byteOffset":98016,"byteStride":12,"target":34962},{"buffer":0,"byteLength":17076,"byteOffset":115092,"byteStride":12,"target":34962},{"buffer":0,"byteLength":1440,"byteOffset":132168,"target":34963},{"buffer":0,"byteLength":1608,"byteOffset":133608,"byteStride":12,"target":34962},{"buffer":0,"byteLength":1608,"byteOffset":135216,"byteStride":12,"target":34962}],"buffers":[{"byteLength":136824,"uri":"first pic.bin"}],"materials":[{"name":"Mtl","alphaMode":"MASK","doubleSided":true,"pbrMetallicRoughness":{"baseColorFactor":[0.7921568751335144,0.8196078538894653,0.9333333373069763,1.0],"metallicFactor":0.0}},{"name":"Mtl1","alphaMode":"MASK","doubleSided":true,"pbrMetallicRoughness":{"baseColorFactor":[0.7921568751335144,0.8196078538894653,0.9333333373069763,1.0],"metallicFactor":0.0}},{"name":"Mtl2","alphaMode":"MASK","doubleSided":true,"pbrMetallicRoughness":{"baseColorFactor":[0.7921568751335144,0.8196078538894653,0.9333333373069763,1.0],"metallicFactor":0.0}},{"name":"Mtl3","alphaMode":"MASK","doubleSided":true,"pbrMetallicRoughness":{"baseColorFactor":[0.7921568751335144,0.8196078538894653,0.9333333373069763,1.0],"metallicFactor":0.0}}],"meshes":[{"primitives":[{"attributes":{"NORMAL":2,"POSITION":1},"indices":0,"material":0,"mode":4}]},{"primitives":[{"attributes":{"NORMAL":5,"POSITION":4},"indices":3,"material":1,"mode":4}]},{"primitives":[{"attributes":{"NORMAL":8,"POSITION":7},"indices":6,"material":2,"mode":4}]},{"primitives":[{"attributes":{"NORMAL":11,"POSITION":10},"indices":9,"material":3,"mode":4}]}],"nodes":[{"children":[1,2,6,10,14],"matrix":[1.0,0.0,0.0,0.0,0.0,4.4896593387466768e-11,-1.0,0.0,0.0,1.0,4.4896593387466768e-11,0.0,0.0,0.0,0.0,1.0]},{"name":"Camera-1","rotation":[-0.7071067690849304,0.0,0.0,-0.7071067690849304],"translation":[0.21375000476837159,-3.7100000381469728,-0.056665804237127307]},{"name":"left pipe-1","children":[3],"rotation":[-0.7071067690849304,0.0,0.0,-0.7071067690849304],"translation":[-0.007499999832361937,0.03999999910593033,0.09476964175701142]},{"name":"Body_1","children":[5],"rotation":[0.0,0.0,0.0,-1.0]},{"mesh":0},{"children":[4]},{"name":"rectangle with pipe-tube-1","children":[7],"rotation":[-0.7071067690849304,0.0,0.0,-0.7071067690849304]},{"name":"Body_1","children":[9],"rotation":[0.0,0.0,0.0,-1.0]},{"mesh":1},{"children":[8]},{"name":"right pipes-1","children":[11],"rotation":[-0.7071067690849304,0.0,0.0,-0.7071067690849304],"translation":[0.007499999832361937,0.03999999910593033,0.09049999713897705]},{"name":"Body_1","children":[13],"rotation":[0.0,0.0,0.0,-1.0]},{"mesh":2},{"children":[12]},{"name":"Tank-1","children":[15],"rotation":[-0.5,0.5,0.5,-0.5],"translation":[-0.2549999952316284,0.03999999910593033,-0.0495947003364563]},{"name":"Body_1","children":[17],"rotation":[0.0,0.0,0.0,-1.0]},{"mesh":3},{"children":[16]}],"scene":0,"scenes":[{"nodes":[0]}]}