{"accessors":[{"bufferView":0,"componentType":5125,"count":14664,"max":[4659.0],"min":[0.0],"type":"SCALAR"},{"bufferView":1,"componentType":5126,"count":4660,"max":[0.3799999952316284,0.12999999523162843,0.12999999523162843],"min":[-0.05000000074505806,-0.12999999523162843,-0.7490000128746033],"type":"VEC3"},{"bufferView":2,"componentType":5126,"count":4660,"max":[1.0,1.0,1.0],"min":[-1.0,-1.0,-1.0],"type":"VEC3"},{"bufferView":3,"componentType":5125,"count":18600,"max":[5819.0],"min":[0.0],"type":"SCALAR"},{"bufferView":4,"componentType":5126,"count":5820,"max":[0.3799999952316284,0.7298093438148499,-0.7509999871253967],"min":[-0.05000000074505806,-0.12980934977531434,-1.6299999952316285],"type":"VEC3"},{"bufferView":5,"componentType":5126,"count":5820,"max":[1.0,1.0,1.0],"min":[-1.0,-1.0,-1.0],"type":"VEC3"}],"asset":{"generator":"SimLab GLTF","version":"2.0"},"bufferViews":[{"buffer":0,"byteLength":58656,"target":34963},{"buffer":0,"byteLength":55920,"byteOffset":58656,"byteStride":12,"target":34962},{"buffer":0,"byteLength":55920,"byteOffset":114576,"byteStride":12,"target":34962},{"buffer":0,"byteLength":74400,"byteOffset":170496,"target":34963},{"buffer":0,"byteLength":69840,"byteOffset":244896,"byteStride":12,"target":34962},{"buffer":0,"byteLength":69840,"byteOffset":314736,"byteStride":12,"target":34962}],"buffers":[{"byteLength":384576,"uri":"Pipes_2.bin"}],"materials":[{"name":"Mtl","alphaMode":"MASK","doubleSided":true,"pbrMetallicRoughness":{"baseColorFactor":[0.7921568751335144,0.8196078538894653,0.9333333373069763,1.0],"metallicFactor":0.0}}],"meshes":[{"primitives":[{"attributes":{"NORMAL":2,"POSITION":1},"indices":0,"material":0,"mode":4}]},{"primitives":[{"attributes":{"NORMAL":5,"POSITION":4},"indices":3,"material":0,"mode":4}]}],"nodes":[{"children":[1,2,5],"matrix":[1.0,0.0,0.0,0.0,0.0,4.4896593387466768e-11,-1.0,0.0,0.0,1.0,4.4896593387466768e-11,0.0,0.0,0.0,0.0,1.0]},{"name":"Camera-1","rotation":[-0.7071067690849304,0.0,0.0,-0.7071067690849304],"translation":[0.16499999165534974,-6.740095138549805,-0.75]},{"name":"Body_1","children":[4],"rotation":[0.0,0.0,0.0,-1.0]},{"mesh":0},{"children":[3]},{"name":"Body_2","children":[7],"rotation":[0.0,0.0,0.0,-1.0]},{"mesh":1},{"children":[6]}],"scene":0,"scenes":[{"nodes":[0]}]}