{"accessors":[{"bufferView":0,"componentType":5125,"count":1500,"max":[1499.0],"min":[0.0],"type":"SCALAR"},{"bufferView":1,"componentType":5126,"count":1500,"max":[-17.00200080871582,-18.667999267578126,2.0],"min":[-79.0,-24.0,-1.3322676295501879e-15],"type":"VEC3"},{"bufferView":2,"componentType":5126,"count":425,"max":[0.0,1.0,0.0],"min":[0.0,1.0,0.0],"type":"VEC3"}],"asset":{"generator":"SimLab GLTF","version":"2.0"},"bufferViews":[{"buffer":0,"byteLength":6000,"target":34963},{"buffer":0,"byteLength":18000,"byteOffset":6000,"byteStride":12,"target":34962},{"buffer":0,"byteLength":5100,"byteOffset":24000,"byteStride":12,"target":34962}],"buffers":[{"byteLength":29100,"uri":"Cool Hillar-Fulffy.bin"}],"materials":[{"name":"lambert2SG.001","alphaMode":"MASK","doubleSided":true,"pbrMetallicRoughness":{"roughnessFactor":0.9854999780654907}}],"meshes":[{"primitives":[{"attributes":{"NORMAL":2,"POSITION":1},"indices":0,"material":0,"mode":4}]}],"nodes":[{"children":[1,2],"matrix":[1.0,0.0,0.0,0.0,0.0,4.4896593387466768e-11,-1.0,0.0,0.0,1.0,4.4896593387466768e-11,0.0,0.0,0.0,0.0,1.0]},{"name":"Camera-1","rotation":[-0.7071067690849304,-7.359961922921222e-18,0.0,-0.7071067690849304],"translation":[-48.000999450683597,-269.32598876953127,1.0]},{"name":"Assembly-4","children":[4],"rotation":[0.0,0.0,0.0,-1.0]},{"mesh":0},{"children":[3]}],"scene":0,"scenes":[{"nodes":[0]}]}