{"accessors":[{"bufferView":0,"componentType":5125,"count":360,"max":[133.0],"min":[0.0],"type":"SCALAR"},{"bufferView":1,"componentType":5126,"count":134,"max":[0.017500000074505807,0.017404133453965188,0.0],"min":[-0.017500000074505807,-0.017404133453965188,-0.15000000596046449],"type":"VEC3"},{"bufferView":2,"componentType":5126,"count":134,"max":[1.0,0.9945219159126282,1.0],"min":[-1.0,-0.9945219159126282,-1.0],"type":"VEC3"}],"asset":{"generator":"SimLab GLTF","version":"2.0"},"bufferViews":[{"buffer":0,"byteLength":1440,"target":34963},{"buffer":0,"byteLength":1608,"byteOffset":1440,"byteStride":12,"target":34962},{"buffer":0,"byteLength":1608,"byteOffset":3048,"byteStride":12,"target":34962}],"buffers":[{"byteLength":4656,"uri":"Tank.bin"}],"materials":[{"name":"Mtl","alphaMode":"MASK","doubleSided":true,"pbrMetallicRoughness":{"baseColorFactor":[0.7921568751335144,0.8196078538894653,0.9333333373069763,1.0],"metallicFactor":0.0}}],"meshes":[{"primitives":[{"attributes":{"NORMAL":2,"POSITION":1},"indices":0,"material":0,"mode":4}]}],"nodes":[{"children":[1,2],"matrix":[1.0,0.0,0.0,0.0,0.0,4.4896593387466768e-11,-1.0,0.0,0.0,1.0,4.4896593387466768e-11,0.0,0.0,0.0,0.0,1.0]},{"name":"Camera-1","rotation":[-0.7071067690849304,0.0,0.0,-0.7071067690849304],"translation":[0.0,-0.6000000238418579,-0.07500000298023224]},{"name":"Body_1","children":[4],"rotation":[0.0,0.0,0.0,-1.0]},{"mesh":0},{"children":[3]}],"scene":0,"scenes":[{"nodes":[0]}]}