{"accessors":[{"bufferView":0,"byteOffset":0,"componentType":5126,"count":296358,"max":[136.0,14.0,87.0],"min":[-115.0,-45.0,0.0],"type":"VEC3"},{"bufferView":1,"byteOffset":0,"componentType":5125,"count":296358,"type":"SCALAR"}],"asset":{"generator":"Open CASCADE Technology [www.opencascade.com]","version":"2.0","extras":{"Originating system":"Autodesk.Tinkercad","Read files list":"Cool Crift (2).glb"}},"bufferViews":[{"buffer":0,"byteLength":3556296,"byteOffset":0,"byteStride":12,"target":34962},{"buffer":0,"byteLength":1185432,"byteOffset":3556296,"target":34963}],"buffers":[{"byteLength":4741728,"uri":"Cool Crift (2).bin"}],"materials":[{"name":"mat_0","pbrMetallicRoughness":{"baseColorFactor":[0.0,0.014353159815073014,1.0,1.0],"roughnessFactor":0.2121320366859436},"doubleSided":true}],"meshes":[{"name":"Mesh_Mesh_head_geo.001_lambert2SG.001","primitives":[{"attributes":{"POSITION":0},"indices":1,"material":0,"mode":4}]}],"nodes":[{"rotation":[-0.7071067811865475,0.0,0.0,0.7071067811865476],"mesh":0,"name":"Cool Crift (2).glb"}],"scene":0,"scenes":[{"nodes":[0]}]}