{"accessors":[{"bufferView":0,"componentType":5125,"count":17604,"max":[5417.0],"min":[0.0],"type":"SCALAR"},{"bufferView":1,"componentType":5126,"count":5418,"max":[0.9800000190734863,0.8299999833106995,0.07999999821186066],"min":[-0.07999999821186066,-0.12978005409240724,-0.2750000059604645],"type":"VEC3"},{"bufferView":2,"componentType":5126,"count":5418,"max":[1.0,1.0,1.0],"min":[-1.0,-1.0,-1.0],"type":"VEC3"},{"bufferView":3,"componentType":5125,"count":7464,"max":[2587.0],"min":[0.0],"type":"SCALAR"},{"bufferView":4,"componentType":5126,"count":2588,"max":[0.9800000190734863,0.12999999523162843,-0.2770000100135803],"min":[0.7200000286102295,-0.12999999523162843,-2.25],"type":"VEC3"},{"bufferView":5,"componentType":5126,"count":2588,"max":[1.0,1.0,1.0],"min":[-1.0,-1.0,-1.0],"type":"VEC3"},{"bufferView":6,"componentType":5125,"count":21402,"max":[6037.0],"min":[0.0],"type":"SCALAR"},{"bufferView":7,"componentType":5126,"count":6038,"max":[1.0,0.22750000655651093,-2.252000093460083],"min":[0.699999988079071,-0.22750000655651093,-3.3519999980926515],"type":"VEC3"},{"bufferView":8,"componentType":5126,"count":6038,"max":[1.0,1.0,1.0],"min":[-1.0,-1.0,-1.0],"type":"VEC3"}],"asset":{"generator":"SimLab GLTF","version":"2.0"},"bufferViews":[{"buffer":0,"byteLength":70416,"target":34963},{"buffer":0,"byteLength":65016,"byteOffset":70416,"byteStride":12,"target":34962},{"buffer":0,"byteLength":65016,"byteOffset":135432,"byteStride":12,"target":34962},{"buffer":0,"byteLength":29856,"byteOffset":200448,"target":34963},{"buffer":0,"byteLength":31056,"byteOffset":230304,"byteStride":12,"target":34962},{"buffer":0,"byteLength":31056,"byteOffset":261360,"byteStride":12,"target":34962},{"buffer":0,"byteLength":85608,"byteOffset":292416,"target":34963},{"buffer":0,"byteLength":72456,"byteOffset":378024,"byteStride":12,"target":34962},{"buffer":0,"byteLength":72456,"byteOffset":450480,"byteStride":12,"target":34962}],"buffers":[{"byteLength":522936,"uri":"Pipes_3.bin"}],"materials":[{"name":"Mtl","alphaMode":"MASK","doubleSided":true,"pbrMetallicRoughness":{"baseColorFactor":[0.7921568751335144,0.8196078538894653,0.9333333373069763,1.0],"metallicFactor":0.0}}],"meshes":[{"primitives":[{"attributes":{"NORMAL":2,"POSITION":1},"indices":0,"material":0,"mode":4}]},{"primitives":[{"attributes":{"NORMAL":5,"POSITION":4},"indices":3,"material":0,"mode":4}]},{"primitives":[{"attributes":{"NORMAL":8,"POSITION":7},"indices":6,"material":0,"mode":4}]}],"nodes":[{"children":[1,2,5,8],"matrix":[1.0,0.0,0.0,0.0,0.0,4.4896593387466768e-11,-1.0,0.0,0.0,1.0,4.4896593387466768e-11,0.0,0.0,0.0,0.0,1.0]},{"name":"Camera-1","rotation":[-0.7071067690849304,0.0,0.0,-0.7071067690849304],"translation":[0.46000000834465029,-13.426750183105469,-1.6360000371932984]},{"name":"Body_1","children":[4],"rotation":[0.0,0.0,0.0,-1.0]},{"mesh":0},{"children":[3]},{"name":"Body_2","children":[7],"rotation":[0.0,0.0,0.0,-1.0]},{"mesh":1},{"children":[6]},{"name":"Body_3","children":[10],"rotation":[0.0,0.0,0.0,-1.0]},{"mesh":2},{"children":[9]}],"scene":0,"scenes":[{"nodes":[0]}]}