{"accessors":[{"bufferView":0,"componentType":5125,"count":1476,"max":[665.0],"min":[0.0],"type":"SCALAR"},{"bufferView":1,"componentType":5126,"count":666,"max":[0.8833776116371155,0.637890100479126,0.3499999940395355],"min":[-0.25125443935394289,-0.004999999888241291,0.0],"type":"VEC3"},{"bufferView":2,"componentType":5126,"count":666,"max":[1.0,1.0,1.0],"min":[-1.0,-1.0,-1.0],"type":"VEC3"}],"asset":{"generator":"SimLab GLTF","version":"2.0"},"bufferViews":[{"buffer":0,"byteLength":5904,"target":34963},{"buffer":0,"byteLength":7992,"byteOffset":5904,"byteStride":12,"target":34962},{"buffer":0,"byteLength":7992,"byteOffset":13896,"byteStride":12,"target":34962}],"buffers":[{"byteLength":21888,"uri":"Cross_section.bin"}],"materials":[{"name":"Mtl","alphaMode":"MASK","doubleSided":true,"pbrMetallicRoughness":{"baseColorFactor":[0.7921568751335144,0.8196078538894653,0.9333333373069763,1.0],"metallicFactor":0.0}}],"meshes":[{"primitives":[{"attributes":{"NORMAL":2,"POSITION":1},"indices":0,"material":0,"mode":4}]}],"nodes":[{"children":[1,2],"matrix":[1.0,0.0,0.0,0.0,0.0,4.4896593387466768e-11,-1.0,0.0,0.0,1.0,4.4896593387466768e-11,0.0,0.0,0.0,0.0,1.0]},{"name":"Camera-1","rotation":[-0.7071067690849304,0.0,0.0,-0.7071067690849304],"translation":[0.3160615861415863,-4.22208309173584,0.17499999701976777]},{"name":"Body_1","children":[4],"rotation":[0.0,0.0,0.0,-1.0]},{"mesh":0},{"children":[3]}],"scene":0,"scenes":[{"nodes":[0]}]}