{"accessors":[{"bufferView":0,"componentType":5125,"count":510,"max":[509.0],"min":[0.0],"type":"SCALAR"},{"bufferView":1,"componentType":5126,"count":510,"max":[23.0,10.0,40.0],"min":[-9.0,-18.170000076293947,6.5],"type":"VEC3"},{"bufferView":2,"componentType":5126,"count":155,"max":[0.0,1.0,0.0],"min":[0.0,1.0,0.0],"type":"VEC3"}],"asset":{"generator":"SimLab GLTF","version":"2.0"},"bufferViews":[{"buffer":0,"byteLength":2040,"target":34963},{"buffer":0,"byteLength":6120,"byteOffset":2040,"byteStride":12,"target":34962},{"buffer":0,"byteLength":1860,"byteOffset":8160,"byteStride":12,"target":34962}],"buffers":[{"byteLength":10020,"uri":"Incredible Duup (1) (2).bin"}],"materials":[{"name":"lambert2SG.001","alphaMode":"MASK","doubleSided":true,"pbrMetallicRoughness":{"roughnessFactor":0.9854999780654907}}],"meshes":[{"primitives":[{"attributes":{"NORMAL":2,"POSITION":1},"indices":0,"material":0,"mode":4}]}],"nodes":[{"children":[1,2],"matrix":[1.0,0.0,0.0,0.0,0.0,4.4896593387466768e-11,-1.0,0.0,0.0,1.0,4.4896593387466768e-11,0.0,0.0,0.0,0.0,1.0]},{"name":"Camera-1","rotation":[-0.7071067690849304,0.0,0.0,-0.7071067690849304],"translation":[7.0,-138.0850067138672,23.25]},{"name":"Assembly-4","children":[4],"rotation":[0.0,0.0,0.0,-1.0]},{"mesh":0},{"children":[3]}],"scene":0,"scenes":[{"nodes":[0]}]}