{"accessors":[{"bufferView":0,"componentType":5125,"count":151788,"max":[151787.0],"min":[0.0],"type":"SCALAR"},{"bufferView":1,"componentType":5126,"count":151788,"max":[129.0,-44.0,48.0],"min":[-91.0,-104.0,0.0],"type":"VEC3"},{"bufferView":2,"componentType":5126,"count":1970,"max":[0.0,1.0,0.0],"min":[0.0,1.0,0.0],"type":"VEC3"}],"asset":{"generator":"SimLab GLTF","version":"2.0"},"bufferViews":[{"buffer":0,"byteLength":607152,"target":34963},{"buffer":0,"byteLength":1821456,"byteOffset":607152,"byteStride":12,"target":34962},{"buffer":0,"byteLength":23640,"byteOffset":2428608,"byteStride":12,"target":34962}],"buffers":[{"byteLength":2452248,"uri":"Cool Crift (10).bin"}],"materials":[{"name":"lambert2SG.001","alphaMode":"MASK","doubleSided":true,"pbrMetallicRoughness":{"roughnessFactor":0.9854999780654907}}],"meshes":[{"primitives":[{"attributes":{"NORMAL":2,"POSITION":1},"indices":0,"material":0,"mode":4}]}],"nodes":[{"children":[1,2],"matrix":[1.0,0.0,0.0,0.0,0.0,4.4896593387466768e-11,-1.0,0.0,0.0,1.0,4.4896593387466768e-11,0.0,0.0,0.0,0.0,1.0]},{"name":"Camera-1","rotation":[-0.7071067690849304,0.0,0.0,-0.7071067690849304],"translation":[19.0,-954.0,24.0]},{"name":"Assembly-4","children":[4],"rotation":[0.0,0.0,0.0,-1.0]},{"mesh":0},{"children":[3]}],"scene":0,"scenes":[{"nodes":[0]}]}