{
  "accessors": [
    {
      "bufferView": 2,
      "componentType": 5126,
      "count": 4275,
      "max": [
        1.4612938165664673,
        45.04793930053711,
        9.310552597045898
      ],
      "min": [
        -1.4612938165664673,
        -57.22334671020508,
        -18.584508895874023
      ],
      "type": "VEC3"
    },
    {
      "bufferView": 2,
      "byteOffset": 51300,
      "componentType": 5126,
      "count": 4275,
      "max": [
        1.0,
        1.0,
        1.0
      ],
      "min": [
        -1.0,
        -1.0,
        -1.0
      ],
      "type": "VEC3"
    },
    {
      "bufferView": 1,
      "componentType": 5126,
      "count": 4275,
      "max": [
        1.0,
        1.0
      ],
      "min": [
        0.0,
        0.0
      ],
      "type": "VEC2"
    },
    {
      "bufferView": 0,
      "componentType": 5125,
      "count": 7824,
      "type": "SCALAR"
    },
    {
      "bufferView": 2,
      "byteOffset": 102600,
      "componentType": 5126,
      "count": 820,
      "max": [
        0.1531599909067154,
        1.7593727111816406,
        -3.170015811920166
      ],
      "min": [
        -0.1531599760055542,
        -57.211883544921875,
        -6.103941440582275
      ],
      "type": "VEC3"
    },
    {
      "bufferView": 2,
      "byteOffset": 112440,
      "componentType": 5126,
      "count": 820,
      "max": [
        0.999947190284729,
        1.0,
        0.7274142503738403
      ],
      "min": [
        -0.999947190284729,
        -1.0,
        -0.7274143695831299
      ],
      "type": "VEC3"
    },
    {
      "bufferView": 1,
      "byteOffset": 34200,
      "componentType": 5126,
      "count": 820,
      "max": [
        1.0,
        1.0
      ],
      "min": [
        0.0,
        0.01000000536441803
      ],
      "type": "VEC2"
    },
    {
      "bufferView": 0,
      "byteOffset": 31296,
      "componentType": 5125,
      "count": 1332,
      "type": "SCALAR"
    },
    {
      "bufferView": 2,
      "byteOffset": 122280,
      "componentType": 5126,
      "count": 128,
      "max": [
        1.6650124788284302,
        58.7869873046875,
        11.310474395751953
      ],
      "min": [
        -1.6650124788284302,
        44.89511489868164,
        -20.584430694580078
      ],
      "type": "VEC3"
    },
    {
      "bufferView": 2,
      "byteOffset": 123816,
      "componentType": 5126,
      "count": 128,
      "max": [
        0.9928421378135681,
        0.6409603953361511,
        0.5583423972129822
      ],
      "min": [
        -0.9928421378135681,
        -1.0,
        -0.5583423376083374
      ],
      "type": "VEC3"
    },
    {
      "bufferView": 1,
      "byteOffset": 40760,
      "componentType": 5126,
      "count": 128,
      "max": [
        0.9900000095367432,
        0.49000000953674316
      ],
      "min": [
        0.01000000536441803,
        0.01000000536441803
      ],
      "type": "VEC2"
    },
    {
      "bufferView": 0,
      "byteOffset": 36624,
      "componentType": 5125,
      "count": 186,
      "type": "SCALAR"
    },
    {
      "bufferView": 2,
      "byteOffset": 125352,
      "componentType": 5126,
      "count": 800,
      "max": [
        1.3223893642425537,
        45.04793930053711,
        8.028837203979492
      ],
      "min": [
        -1.3223893642425537,
        0.6246719360351563,
        -17.302793502807617
      ],
      "type": "VEC3"
    },
    {
      "bufferView": 2,
      "byteOffset": 134952,
      "componentType": 5126,
      "count": 800,
      "max": [
        0.999947190284729,
        0.0,
        0.7274105548858643
      ],
      "min": [
        -0.999947190284729,
        -1.0,
        -0.7274110913276672
      ],
      "type": "VEC3"
    },
    {
      "bufferView": 1,
      "byteOffset": 41784,
      "componentType": 5126,
      "count": 800,
      "max": [
        1.0000284910202026,
        1.7869254350662231
      ],
      "min": [
        0.007252528332173824,
        -0.9263800382614136
      ],
      "type": "VEC2"
    },
    {
      "bufferView": 0,
      "byteOffset": 37368,
      "componentType": 5125,
      "count": 1242,
      "type": "SCALAR"
    },
    {
      "bufferView": 2,
      "byteOffset": 144552,
      "componentType": 5126,
      "count": 2880,
      "max": [
        1.1390550136566162,
        149.43984985351563,
        2.133171558380127
      ],
      "min": [
        -1.22711980342865,
        -637.63427734375,
        -2.555962085723877
      ],
      "type": "VEC3"
    },
    {
      "bufferView": 2,
      "byteOffset": 179112,
      "componentType": 5126,
      "count": 2880,
      "max": [
        1.0,
        1.0,
        1.0
      ],
      "min": [
        -1.0,
        -1.0,
        -1.0
      ],
      "type": "VEC3"
    },
    {
      "bufferView": 1,
      "byteOffset": 48184,
      "componentType": 5126,
      "count": 2880,
      "max": [
        1.0,
        1.0
      ],
      "min": [
        0.0,
        0.0
      ],
      "type": "VEC2"
    },
    {
      "bufferView": 0,
      "byteOffset": 42336,
      "componentType": 5125,
      "count": 5160,
      "type": "SCALAR"
    }
  ],
  "asset": {
    "extras": {
      "author": "sumitmangela (https://sketchfab.com/sumitmangela)",
      "license": "CC-BY-4.0 (http://creativecommons.org/licenses/by/4.0/)",
      "source": "https://sketchfab.com/3d-models/water-tank-1cd3c2a963bc4839b5bbd653531fed8e",
      "title": "Water Tank"
    },
    "generator": "Sketchfab-12.66.0",
    "version": "2.0"
  },
  "bufferViews": [
    {
      "buffer": 0,
      "byteLength": 62976,
      "name": "floatBufferViews",
      "target": 34963
    },
    {
      "buffer": 0,
      "byteLength": 71224,
      "byteOffset": 62976,
      "byteStride": 8,
      "name": "floatBufferViews",
      "target": 34962
    },
    {
      "buffer": 0,
      "byteLength": 213672,
      "byteOffset": 134200,
      "byteStride": 12,
      "name": "floatBufferViews",
      "target": 34962
    }
  ],
  "buffers": [
    {
      "byteLength": 347872,
      "uri": "scene.bin"
    }
  ],
  "images": [
    {
      "uri": "textures/metal_baseColor.png"
    },
    {
      "uri": "textures/white_metal_baseColor.jpeg"
    },
    {
      "uri": "textures/tank_baseColor.jpeg"
    }
  ],
  "materials": [
    {
      "doubleSided": true,
      "name": "metal",
      "pbrMetallicRoughness": {
        "baseColorTexture": {
          "index": 0
        },
        "roughnessFactor": 0.381818
      }
    },
    {
      "doubleSided": true,
      "name": "white_metal",
      "pbrMetallicRoughness": {
        "baseColorTexture": {
          "index": 1
        },
        "roughnessFactor": 0.618182
      }
    },
    {
      "doubleSided": true,
      "name": "roof_metal",
      "pbrMetallicRoughness": {
        "baseColorTexture": {
          "index": 0
        },
        "roughnessFactor": 0.686364
      }
    },
    {
      "doubleSided": true,
      "name": "tank",
      "pbrMetallicRoughness": {
        "baseColorTexture": {
          "index": 2
        },
        "metallicFactor": 0.0,
        "roughnessFactor": 0.772727
      }
    }
  ],
  "meshes": [
    {
      "name": "Object_0",
      "primitives": [
        {
          "attributes": {
            "NORMAL": 1,
            "POSITION": 0,
            "TEXCOORD_0": 2
          },
          "indices": 3,
          "material": 0,
          "mode": 4
        }
      ]
    },
    {
      "name": "Object_1",
      "primitives": [
        {
          "attributes": {
            "NORMAL": 5,
            "POSITION": 4,
            "TEXCOORD_0": 6
          },
          "indices": 7,
          "material": 1,
          "mode": 4
        }
      ]
    },
    {
      "name": "Object_2",
      "primitives": [
        {
          "attributes": {
            "NORMAL": 9,
            "POSITION": 8,
            "TEXCOORD_0": 10
          },
          "indices": 11,
          "material": 2,
          "mode": 4
        }
      ]
    },
    {
      "name": "Object_3",
      "primitives": [
        {
          "attributes": {
            "NORMAL": 13,
            "POSITION": 12,
            "TEXCOORD_0": 14
          },
          "indices": 15,
          "material": 3,
          "mode": 4
        }
      ]
    },
    {
      "name": "Object_4",
      "primitives": [
        {
          "attributes": {
            "NORMAL": 17,
            "POSITION": 16,
            "TEXCOORD_0": 18
          },
          "indices": 19,
          "material": 0,
          "mode": 4
        }
      ]
    }
  ],
  "nodes": [
    {
      "children": [
        1
      ],
      "matrix": [
        1.0,
        0.0,
        0.0,
        0.0,
        0.0,
        2.220446049250313e-16,
        -1.0,
        0.0,
        0.0,
        1.0,
        2.220446049250313e-16,
        0.0,
        0.0,
        0.0,
        0.0,
        1.0
      ],
      "name": "Sketchfab_model"
    },
    {
      "children": [
        2
      ],
      "name": "root"
    },
    {
      "children": [
        3,
        8
      ],
      "matrix": [
        1.0,
        0.0,
        0.0,
        0.0,
        0.0,
        2.220446049250313e-16,
        1.0,
        0.0,
        0.0,
        -1.0,
        2.220446049250313e-16,
        0.0,
        0.0,
        0.0,
        0.0,
        1.0
      ],
      "name": "GLTF_SceneRootNode"
    },
    {
      "children": [
        4,
        5,
        6,
        7
      ],
      "matrix": [
        0.7562069296836853,
        0.0,
        0.0,
        0.0,
        0.0,
        0.06165521964430809,
        0.0,
        0.0,
        0.0,
        0.0,
        0.07895267754793167,
        0.0,
        0.0,
        3.527792453765869,
        0.3661018908023834,
        1.0
      ],
      "name": "tank_2"
    },
    {
      "mesh": 0,
      "name": "Object_4"
    },
    {
      "mesh": 1,
      "name": "Object_5"
    },
    {
      "mesh": 2,
      "name": "Object_6"
    },
    {
      "mesh": 3,
      "name": "Object_7"
    },
    {
      "children": [
        9
      ],
      "matrix": [
        -0.11731068044900894,
        -0.0,
        -0.0,
        -0.0,
        0.0,
        0.009081415832042694,
        0.0,
        0.0,
        0.0,
        0.0,
        0.009279171004891396,
        0.0,
        0.0,
        5.0860419273376465,
        1.2686429023742676,
        1.0
      ],
      "name": "ladder_3"
    },
    {
      "mesh": 4,
      "name": "Object_9"
    }
  ],
  "samplers": [
    {
      "magFilter": 9729,
      "minFilter": 9987,
      "wrapS": 10497,
      "wrapT": 10497
    }
  ],
  "scene": 0,
  "scenes": [
    {
      "name": "Sketchfab_Scene",
      "nodes": [
        0
      ]
    }
  ],
  "textures": [
    {
      "sampler": 0,
      "source": 0
    },
    {
      "sampler": 0,
      "source": 1
    },
    {
      "sampler": 0,
      "source": 2
    }
  ]
}
