{"accessors":[{"bufferView":0,"componentType":5125,"count":23508,"max":[23507.0],"min":[0.0],"type":"SCALAR"},{"bufferView":1,"componentType":5126,"count":23508,"max":[34.430999755859378,5.431000232696533,81.0],"min":[-4.431000232696533,-33.430999755859378,-2.0],"type":"VEC3"},{"bufferView":2,"componentType":5126,"count":443,"max":[0.0,1.0,0.0],"min":[0.0,1.0,0.0],"type":"VEC3"}],"asset":{"generator":"SimLab GLTF","version":"2.0"},"bufferViews":[{"buffer":0,"byteLength":94032,"target":34963},{"buffer":0,"byteLength":282096,"byteOffset":94032,"byteStride":12,"target":34962},{"buffer":0,"byteLength":5316,"byteOffset":376128,"byteStride":12,"target":34962}],"buffers":[{"byteLength":381444,"uri":"Cool Amberis-Fyyran.bin"}],"materials":[{"name":"lambert2SG.001","alphaMode":"MASK","doubleSided":true,"pbrMetallicRoughness":{"roughnessFactor":0.9854999780654907}}],"meshes":[{"primitives":[{"attributes":{"NORMAL":2,"POSITION":1},"indices":0,"material":0,"mode":4}]}],"nodes":[{"children":[1,2],"matrix":[1.0,0.0,0.0,0.0,0.0,4.4896593387466768e-11,-1.0,0.0,0.0,1.0,4.4896593387466768e-11,0.0,0.0,0.0,0.0,1.0]},{"name":"Camera-1","rotation":[-0.7071067690849304,0.0,0.0,-0.7071067690849304],"translation":[15.0,-346.0,39.5]},{"name":"Assembly-4","children":[4],"rotation":[0.0,0.0,0.0,-1.0]},{"mesh":0},{"children":[3]}],"scene":0,"scenes":[{"nodes":[0]}]}