{"accessors":[{"bufferView":0,"componentType":5125,"count":79500,"max":[79499.0],"min":[0.0],"type":"SCALAR"},{"bufferView":1,"componentType":5126,"count":79500,"max":[29.5,44.316349029541019,28.175336837768556],"min":[-29.5,-2.2849276065826418,-4.440892098500626e-15],"type":"VEC3"},{"bufferView":2,"componentType":5126,"count":79500,"max":[1.0,1.0,0.9999774694442749],"min":[-1.0,-0.9999774694442749,-1.0],"type":"VEC3"}],"asset":{"generator":"SimLab GLTF","version":"2.0"},"bufferViews":[{"buffer":0,"byteLength":318000,"target":34963},{"buffer":0,"byteLength":954000,"byteOffset":318000,"byteStride":12,"target":34962},{"buffer":0,"byteLength":954000,"byteOffset":1272000,"byteStride":12,"target":34962}],"buffers":[{"byteLength":2226000,"uri":"Desoldering Nozzle and Cleaner Rack.bin"}],"materials":[{"name":"Material-1","alphaMode":"MASK","doubleSided":true,"pbrMetallicRoughness":{"metallicFactor":0.0}}],"meshes":[{"primitives":[{"attributes":{"NORMAL":2,"POSITION":1},"indices":0,"material":0,"mode":4}]}],"nodes":[{"children":[1,2],"matrix":[1.0,0.0,0.0,0.0,0.0,4.4896593387466768e-11,-1.0,0.0,0.0,1.0,4.4896593387466768e-11,0.0,0.0,0.0,0.0,1.0]},{"name":"Camera-1","rotation":[-0.7071067690849304,0.0,0.0,-0.7071067690849304],"translation":[0.0,-214.98428344726563,14.087668418884278]},{"name":"Assembly-1","children":[4],"rotation":[0.0,0.0,0.0,-1.0]},{"mesh":0},{"children":[3]}],"scene":0,"scenes":[{"nodes":[0]}]}