{"accessors":[{"bufferView":0,"componentType":5125,"count":5208,"max":[1477.0],"min":[0.0],"type":"SCALAR"},{"bufferView":1,"componentType":5126,"count":1478,"max":[0.017465468496084214,0.10000000149011612,0.017500000074505807],"min":[-0.017465468496084214,0.0,-0.017500000074505807],"type":"VEC3"},{"bufferView":2,"componentType":5126,"count":1478,"max":[1.0,1.0,1.0],"min":[-1.0,-1.0,-1.0],"type":"VEC3"},{"bufferView":3,"componentType":5125,"count":9036,"max":[3134.0],"min":[0.0],"type":"SCALAR"},{"bufferView":4,"componentType":5126,"count":3135,"max":[0.4099999964237213,0.08250000327825546,0.01738167181611061],"min":[0.01549999974668026,-0.007499999832361937,-0.017500000074505807],"type":"VEC3"},{"bufferView":5,"componentType":5126,"count":3135,"max":[1.0,1.0,1.0],"min":[-1.0,-1.0,-1.0],"type":"VEC3"}],"asset":{"generator":"SimLab GLTF","version":"2.0"},"bufferViews":[{"buffer":0,"byteLength":20832,"target":34963},{"buffer":0,"byteLength":17736,"byteOffset":20832,"byteStride":12,"target":34962},{"buffer":0,"byteLength":17736,"byteOffset":38568,"byteStride":12,"target":34962},{"buffer":0,"byteLength":36144,"byteOffset":56304,"target":34963},{"buffer":0,"byteLength":37620,"byteOffset":92448,"byteStride":12,"target":34962},{"buffer":0,"byteLength":37620,"byteOffset":130068,"byteStride":12,"target":34962}],"buffers":[{"byteLength":167688,"uri":"Two tanks connected together.bin"}],"materials":[{"name":"Mtl","alphaMode":"MASK","doubleSided":true,"pbrMetallicRoughness":{"baseColorFactor":[0.7921568751335144,0.8196078538894653,0.9333333373069763,1.0],"metallicFactor":0.0}}],"meshes":[{"primitives":[{"attributes":{"NORMAL":2,"POSITION":1},"indices":0,"material":0,"mode":4}]},{"primitives":[{"attributes":{"NORMAL":5,"POSITION":4},"indices":3,"material":0,"mode":4}]}],"nodes":[{"children":[1,2,5],"matrix":[1.0,0.0,0.0,0.0,0.0,4.4896593387466768e-11,-1.0,0.0,0.0,1.0,4.4896593387466768e-11,0.0,0.0,0.0,0.0,1.0]},{"name":"Camera-1","rotation":[-0.7071067690849304,0.0,0.0,-0.7071067690849304],"translation":[0.1962672621011734,-1.663611888885498,0.0]},{"name":"Body_1","children":[4],"rotation":[0.0,0.0,0.0,-1.0]},{"mesh":0},{"children":[3]},{"name":"Body_2","children":[7],"rotation":[0.0,0.0,0.0,-1.0]},{"mesh":1},{"children":[6]}],"scene":0,"scenes":[{"nodes":[0]}]}