{"accessors":[{"bufferView":0,"componentType":5125,"count":267534,"max":[267533.0],"min":[0.0],"type":"SCALAR"},{"bufferView":1,"componentType":5126,"count":267534,"max":[136.0,14.0,87.0],"min":[-115.0,-45.0,0.0],"type":"VEC3"},{"bufferView":2,"componentType":5126,"count":8708,"max":[0.0,1.0,0.0],"min":[0.0,1.0,0.0],"type":"VEC3"}],"asset":{"generator":"SimLab GLTF","version":"2.0"},"bufferViews":[{"buffer":0,"byteLength":1070136,"target":34963},{"buffer":0,"byteLength":3210408,"byteOffset":1070136,"byteStride":12,"target":34962},{"buffer":0,"byteLength":104496,"byteOffset":4280544,"byteStride":12,"target":34962}],"buffers":[{"byteLength":4385040,"uri":"Cool Crift (4).bin"}],"materials":[{"name":"lambert2SG.001","alphaMode":"MASK","doubleSided":true,"pbrMetallicRoughness":{"roughnessFactor":0.9854999780654907}}],"meshes":[{"primitives":[{"attributes":{"NORMAL":2,"POSITION":1},"indices":0,"material":0,"mode":4}]}],"nodes":[{"children":[1,2],"matrix":[1.0,0.0,0.0,0.0,0.0,4.4896593387466768e-11,-1.0,0.0,0.0,1.0,4.4896593387466768e-11,0.0,0.0,0.0,0.0,1.0]},{"name":"Camera-1","rotation":[-0.7071067690849304,0.0,0.0,-0.7071067690849304],"translation":[10.5,-1019.5,43.5]},{"name":"Assembly-4","children":[4],"rotation":[0.0,0.0,0.0,-1.0]},{"mesh":0},{"children":[3]}],"scene":0,"scenes":[{"nodes":[0]}]}